<svg width="1806" height="371" viewBox="0 0 1806 371" fill="none" xmlns="http://www.w3.org/2000/svg">
<g clip-path="url(#clip0_420_277)">
<path fill-rule="evenodd" clip-rule="evenodd" d="M613.841 132.975L705.298 0H836.281L706.81 176.124L845.053 363.741H704.289L613.841 232.782V363.741H500V0H613.841V132.975ZM1094.52 363.741H985.918V337.731C977.247 349.123 966.861 357.592 954.761 362.935C942.661 368.278 929.25 371 914.73 371C897.789 371 881.959 367.471 867.438 360.314C852.918 353.257 840.314 343.377 829.727 330.976C819.139 318.475 810.871 303.857 804.821 287.021C798.771 270.185 795.746 252.139 795.746 232.682C795.746 212.922 798.771 194.674 804.821 177.838C810.871 161.002 819.24 146.485 829.727 134.185C840.314 121.886 852.818 112.207 867.438 105.049C881.959 97.9924 897.789 94.363 914.73 94.363C929.25 94.363 942.661 97.085 954.761 102.428C966.861 107.771 977.247 116.24 985.918 127.632V101.823H1094.52V363.741ZM904.848 232.782C904.848 244.578 908.982 254.256 917.351 261.918C925.62 269.58 935.401 273.31 946.492 273.31C957.584 273.31 967.264 269.479 975.633 261.918C983.902 254.256 988.137 244.578 988.137 232.782C988.137 220.987 984.002 211.309 975.633 203.647C967.365 195.985 957.584 192.255 946.492 192.255C935.401 192.255 925.72 196.086 917.351 203.647C908.982 211.309 904.848 220.987 904.848 232.782ZM1300.22 98.194V210C1301.66 198.747 1304.22 188.034 1307.88 177.838C1313.93 161.002 1322.3 146.485 1332.79 134.185C1343.37 121.886 1355.88 112.207 1370.5 105.049C1385.02 97.9924 1400.85 94.363 1417.79 94.363C1432.31 94.363 1445.72 97.085 1457.82 102.428C1469.92 107.771 1480.31 116.24 1488.98 127.632V101.823H1597.68V363.741H1488.98V337.731C1480.31 349.123 1469.92 357.592 1457.82 362.935C1445.72 368.278 1432.31 371 1417.79 371C1400.85 371 1385.02 367.471 1370.5 360.314C1355.98 353.257 1343.37 343.377 1332.79 330.976C1322.2 318.475 1313.93 303.857 1307.88 287.021C1301.83 270.185 1298.81 252.139 1298.81 232.682C1298.81 225.874 1299.16 219.246 1299.88 212.793C1295.5 210.507 1291.2 209.068 1286.81 208.385C1282.27 207.679 1278.13 207.377 1274.3 207.377C1255.55 207.377 1241.23 213.224 1231.15 224.818C1221.06 236.412 1216.12 253.853 1216.12 277.04V363.842H1107.02V101.823H1215.62V141.847C1223.28 126.624 1232.56 115.131 1243.65 107.57C1254.74 99.9079 1268.56 96.1777 1285.19 96.1777C1287.92 96.1777 1290.74 96.3794 1293.46 96.6818C1296.18 96.9843 1298.5 97.5891 1300.22 98.194ZM1407.91 232.782C1407.91 244.578 1412.04 254.256 1420.41 261.918C1428.68 269.58 1438.46 273.31 1449.55 273.31C1460.64 273.31 1470.32 269.479 1478.69 261.918C1486.96 254.256 1491.2 244.578 1491.2 232.782C1491.2 220.987 1487.06 211.309 1478.69 203.647C1470.42 195.985 1460.64 192.255 1449.55 192.255C1438.46 192.255 1428.78 196.086 1420.41 203.647C1412.14 211.309 1407.91 220.987 1407.91 232.782ZM1755.89 266.555C1750.54 261.716 1747.82 253.55 1747.82 242.158V189.129H1806V101.823H1747.82V28.0266H1638.72V101.823H1604.94V189.129H1638.72V267.564C1638.72 300.53 1647.59 325.936 1665.44 343.982C1683.29 362.027 1707.49 371 1737.94 371C1754.57 371 1768.39 369.589 1779.28 366.867C1790.17 364.044 1799.04 360.918 1806 357.491V265.547C1802.17 267.967 1797.93 269.983 1793.3 271.495C1788.56 273.008 1783.82 273.814 1778.98 273.814C1768.99 273.814 1761.23 271.395 1755.89 266.555Z" fill="#181A1D"/>
</g>
<g clip-path="url(#clip1_420_277)">
<path fill-rule="evenodd" clip-rule="evenodd" d="M0 0H380V120H0V0ZM0 219.341L122.282 136H257.508L380 220.272V364L189.947 222.237L0 364V219.341Z" fill="#181A1D"/>
</g>
<defs>
<clipPath id="clip0_420_277">
<rect width="1306" height="371" fill="white" transform="translate(500)"/>
</clipPath>
<clipPath id="clip1_420_277">
<rect width="380" height="364" fill="white"/>
</clipPath>
</defs>
</svg>
